<svg width="400" height="372.14484679665736" xmlns="http://www.w3.org/2000/svg">
 <!-- Created with Method Draw - http://github.com/duopixel/Method-Draw/ -->
 <g>
  <title>background</title>
 </g>
 <g>
  <title>Layer 1</title>
  <path fill-rule="evenodd" fill="#d83623" d="m198.862,40.945c-0.349,0.64 -0.985,1.604 -1.412,2.141c-0.8,1.004 -2.761,4.949 -2.761,5.552c0,0.186 -0.331,0.637 -0.735,1.003c-0.405,0.366 -0.83,0.964 -0.946,1.329c-0.116,0.364 -0.958,1.801 -1.872,3.192c-0.914,1.391 -1.661,2.767 -1.661,3.057c0,1.794 -11.596,13.846 -13.322,13.846c-0.189,0 -0.662,0.357 -1.052,0.793c-2.834,3.167 -17.73,5.753 -22.254,3.863c-0.735,-0.308 -1.854,-0.559 -2.486,-0.559c-1.724,0 -12.435,-3.74 -13.045,-4.555c-0.389,-0.52 -3.146,0.086 -3.762,0.826c-0.592,0.712 -0.42,3.031 0.313,4.218c0.414,0.67 2.388,6.379 2.69,7.783c0.164,0.759 0.546,1.765 0.85,2.234c0.303,0.469 0.865,1.691 1.248,2.716c0.384,1.024 0.913,2.281 1.176,2.793c0.262,0.512 0.478,1.298 0.48,1.747c0.001,0.449 0.164,0.916 0.363,1.039c0.199,0.123 0.721,1.431 1.16,2.907c0.44,1.476 1.032,3.015 1.315,3.42c0.284,0.405 0.516,1.123 0.516,1.597c0,0.473 0.419,1.687 0.931,2.698c0.512,1.01 0.931,2.034 0.931,2.274c0,0.241 0.317,1.126 0.705,1.968c1.097,2.384 2.609,6.61 2.878,8.048c0.134,0.717 0.451,1.555 0.703,1.862c0.253,0.308 0.746,1.437 1.095,2.51c0.349,1.073 0.777,2.038 0.95,2.145c0.173,0.107 0.742,1.492 1.264,3.077c5.801,17.603 -0.469,29.388 -13.182,24.779c-4.211,-1.527 -6.535,-3.195 -13.594,-9.758c-1.389,-1.291 -6,-5.139 -12.204,-10.183c-1.449,-1.178 -2.752,-2.141 -2.894,-2.141c-0.143,0 -1.246,-1.019 -2.451,-2.264c-1.204,-1.245 -2.693,-2.526 -3.307,-2.845c-0.615,-0.32 -1.201,-0.687 -1.304,-0.815c-0.19,-0.237 -4.157,-3.669 -6.11,-5.285c-0.595,-0.493 -1.535,-1.315 -2.09,-1.827c-0.554,-0.512 -1.743,-1.611 -2.642,-2.444c-7.797,-7.215 -10.239,-7.117 -11.34,0.459c-2.06,14.191 -7.578,18.096 -20.456,14.479c-2.343,-0.658 -10.96,-2.34 -13.327,-2.602c-0.977,-0.107 -2.28,-0.457 -2.897,-0.775c-0.616,-0.319 -2.582,-0.754 -4.369,-0.966c-1.787,-0.213 -4.087,-0.623 -5.111,-0.913c-5.311,-1.501 -16.319,-3.1 -18.162,-2.638c-3.159,0.793 -1.327,7.456 4.296,15.627c0.537,0.781 1.503,2.541 2.148,3.911c0.644,1.37 1.684,3.54 2.311,4.82c1.207,2.469 1.333,6.959 0.295,10.504c-1.153,3.935 -7.031,7.146 -14.365,7.847c-2.451,0.234 -5.336,0.517 -6.412,0.627l-1.955,0.201l0,2.747c0,2.433 0.08,2.748 0.695,2.748c0.382,0 1.094,0.308 1.583,0.684c0.488,0.377 2.229,1.307 3.867,2.067c1.639,0.761 3.425,1.626 3.968,1.923c0.544,0.297 1.19,0.54 1.436,0.54c0.247,0 1.083,0.503 1.859,1.117c0.776,0.615 1.521,1.117 1.657,1.117c0.312,0 3.184,1.242 5.605,2.424c1.025,0.5 2.972,1.414 4.327,2.031c1.356,0.618 2.675,1.376 2.932,1.686c0.257,0.31 0.622,0.563 0.812,0.563c0.341,0 5.197,2.287 6.268,2.953c1.067,0.662 3.963,1.889 4.459,1.889c0.274,0 1.018,0.39 1.651,0.866c1.354,1.017 2.519,1.636 8.883,4.723c6.523,3.163 8.562,5.776 6.05,7.752c-0.512,0.403 -0.931,0.982 -0.931,1.287c0,1.513 3.269,0.804 8.752,-1.899c1.639,-0.808 3.399,-1.595 3.911,-1.749c0.512,-0.154 1.262,-0.508 1.666,-0.788c0.404,-0.28 1.015,-0.509 1.358,-0.509c0.344,0 1.354,-0.416 2.245,-0.926c0.892,-0.51 1.961,-0.929 2.376,-0.931c0.416,-0.003 1.104,-0.249 1.53,-0.547c0.426,-0.299 1.93,-0.88 3.342,-1.291c3.089,-0.901 5.998,-1.948 7.099,-2.556c0.444,-0.245 1.731,-0.687 2.86,-0.981c1.128,-0.294 2.386,-0.713 2.795,-0.932c0.408,-0.218 1.618,-0.585 2.688,-0.814c1.069,-0.23 2.633,-0.73 3.473,-1.112c0.841,-0.382 2.122,-0.698 2.847,-0.702c0.725,-0.005 1.982,-0.35 2.793,-0.768c0.812,-0.418 2.649,-0.911 4.083,-1.097c1.433,-0.185 3.193,-0.577 3.91,-0.87c0.717,-0.294 2.142,-0.647 3.166,-0.786c1.024,-0.139 2.826,-0.579 4.005,-0.977c1.179,-0.399 2.776,-0.724 3.55,-0.724c0.774,0 2.324,-0.257 3.444,-0.57c1.12,-0.313 4.215,-0.894 6.878,-1.291c2.663,-0.397 5.428,-0.897 6.145,-1.11c0.717,-0.214 3.914,-0.548 7.104,-0.741c3.191,-0.194 6.543,-0.519 7.451,-0.723c0.907,-0.203 4.492,-0.549 7.966,-0.768c3.475,-0.219 6.91,-0.555 7.634,-0.747c5.073,-1.342 41.638,-1.33 50.207,0.017c2.514,0.395 6.285,0.719 8.38,0.719c2.095,0 5.234,0.256 6.975,0.569c1.741,0.312 5.512,0.735 8.38,0.939c2.868,0.205 6.974,0.693 9.125,1.086c2.151,0.393 5,0.873 6.331,1.067c2.853,0.416 7.479,1.35 10.615,2.144c1.229,0.311 3.408,0.722 4.842,0.913c1.433,0.192 3.445,0.593 4.469,0.893c1.024,0.299 2.868,0.739 4.097,0.979c1.229,0.239 2.656,0.651 3.17,0.914c0.515,0.264 1.772,0.601 2.794,0.75c1.021,0.149 2.292,0.491 2.825,0.761c0.532,0.27 1.789,0.688 2.793,0.929c1.004,0.241 2.496,0.737 3.315,1.102c1.672,0.745 5.566,2.058 7.821,2.637c0.82,0.21 1.807,0.554 2.194,0.765c0.387,0.21 1.546,0.632 2.577,0.939c1.031,0.306 2.471,0.876 3.202,1.268c0.73,0.391 1.619,0.711 1.976,0.711c0.357,0 1.617,0.443 2.799,0.984c4.675,2.137 5.227,2.368 5.672,2.368c0.253,0 0.905,0.311 1.448,0.69c1.472,1.028 9.816,5.001 13.386,6.374c3.515,1.352 4.359,0.813 2.314,-1.477c-2.007,-2.249 -1.106,-3.968 3.208,-6.123c1.616,-0.808 3.357,-1.741 3.869,-2.074c0.512,-0.333 2.355,-1.158 4.097,-1.834c3.477,-1.35 3.937,-1.567 10.428,-4.917c1.127,-0.582 2.261,-1.06 2.521,-1.062c0.26,-0.003 1.103,-0.382 1.872,-0.843c2.619,-1.568 9.458,-4.749 10.213,-4.749c0.199,0 0.808,-0.314 1.351,-0.698c0.544,-0.384 1.532,-0.816 2.195,-0.96c0.663,-0.144 1.298,-0.41 1.411,-0.593c0.263,-0.424 4.52,-2.457 5.829,-2.782c0.548,-0.136 1.286,-0.568 1.64,-0.959c0.354,-0.391 0.869,-0.712 1.144,-0.712c0.957,0 4.09,-3.632 3.803,-4.409c-0.417,-1.128 -3.452,-2.365 -6.596,-2.688c-7.314,-0.751 -12.811,-3.614 -15.708,-8.18l-1.295,-2.041l0,-5.809c0,-3.728 0.149,-5.997 0.417,-6.332c0.229,-0.287 0.629,-1.192 0.888,-2.012c0.259,-0.819 1.118,-2.608 1.91,-3.975c0.792,-1.368 1.44,-2.634 1.44,-2.814c0,-0.181 0.437,-0.906 0.971,-1.611c0.534,-0.706 1.204,-1.786 1.489,-2.4c0.286,-0.615 0.937,-1.788 1.448,-2.608c1.51,-2.42 1.513,-2.463 0.289,-3.557c-1.526,-1.363 -3.396,-1.61 -6.99,-0.921c-1.639,0.314 -5.912,0.903 -9.497,1.309c-3.585,0.406 -7.691,0.994 -9.125,1.306c-1.434,0.313 -4.115,0.729 -5.959,0.927c-1.844,0.197 -4.525,0.618 -5.959,0.937c-6.784,1.506 -14.964,1.684 -17.691,0.385c-4.167,-1.984 -5.356,-2.988 -6.84,-5.772c-0.386,-0.725 -0.863,-1.42 -1.059,-1.545c-0.456,-0.29 -2.168,-6.28 -2.479,-8.672c-0.357,-2.752 -1.422,-3.421 -4.151,-2.61c-2.946,0.874 -8.741,4.797 -12.2,8.258c-0.465,0.464 -1.973,1.595 -3.352,2.512c-1.379,0.918 -3.429,2.437 -4.556,3.377c-3.051,2.545 -3.229,2.679 -4.358,3.282c-0.573,0.305 -2.215,1.648 -3.649,2.983c-1.434,1.334 -2.901,2.433 -3.259,2.442c-0.359,0.008 -0.652,0.156 -0.652,0.328c0,0.171 -1.383,1.295 -3.072,2.497c-1.69,1.202 -4.208,3.24 -5.594,4.529c-1.387,1.29 -2.675,2.344 -2.863,2.344c-0.187,0 -1.659,0.88 -3.27,1.956c-4.816,3.216 -9.451,4.884 -13.506,4.861c-4.043,-0.023 -9.311,-3.063 -9.311,-5.374c0,-0.404 -0.269,-1.255 -0.598,-1.891c-1.383,-2.675 -0.008,-10.89 2.824,-16.87c0.582,-1.229 1.513,-3.324 2.068,-4.656c1.532,-3.673 2.048,-4.858 3.001,-6.89c0.83,-1.77 1.946,-4.791 2.818,-7.631c0.22,-0.715 0.8,-1.775 1.288,-2.356c0.489,-0.581 0.889,-1.342 0.889,-1.69c0,-0.349 0.239,-0.974 0.53,-1.39c0.292,-0.416 1.158,-2.423 1.925,-4.459c0.767,-2.037 1.618,-3.967 1.891,-4.291c0.273,-0.323 0.501,-0.826 0.508,-1.117c0.006,-0.291 0.424,-1.367 0.927,-2.392c0.504,-1.024 0.918,-2.162 0.92,-2.528c0.002,-0.367 0.318,-1.289 0.703,-2.049c0.765,-1.51 2.426,-5.674 2.853,-7.154c0.148,-0.513 0.559,-1.35 0.914,-1.863c0.354,-0.512 0.756,-1.542 0.892,-2.29c0.136,-0.747 0.494,-1.564 0.796,-1.815c0.81,-0.671 0.668,-1.984 -0.313,-2.906c-1.137,-1.069 -1.988,-1.023 -5.001,0.271c-5.708,2.45 -10.212,3.989 -12.759,4.362c-0.922,0.135 -1.875,0.402 -2.119,0.594c-0.562,0.442 -10.794,0.149 -13.443,-0.385c-3.403,-0.686 -9.158,-3.106 -11.44,-4.811c-0.614,-0.459 -1.536,-1.128 -2.048,-1.487c-2.005,-1.406 -9.493,-9.357 -11.032,-11.714c-0.895,-1.37 -1.795,-2.595 -2.001,-2.722c-0.206,-0.128 -0.375,-0.506 -0.375,-0.841c0,-0.335 -0.407,-1.038 -0.904,-1.561c-0.497,-0.523 -1.759,-2.711 -2.804,-4.862c-1.046,-2.151 -2.068,-4.162 -2.273,-4.469c-0.204,-0.308 -0.66,-1.037 -1.013,-1.62c-1.927,-3.189 -3.036,-3.644 -4.103,-1.685m-22.05,150.398c-3.79,0.15 -7.728,0.461 -8.752,0.69c-1.025,0.229 -4.377,0.6 -7.449,0.824c-3.073,0.223 -7.198,0.73 -9.167,1.126c-1.969,0.396 -5.489,0.887 -7.821,1.092c-2.333,0.205 -5.331,0.62 -6.662,0.924c-1.332,0.304 -3.594,0.709 -5.028,0.901c-1.434,0.192 -3.529,0.604 -4.656,0.915c-2.966,0.818 -6.856,1.722 -10.038,2.331c-2.744,0.525 -6.534,1.772 -7.287,2.396c-0.214,0.178 -1.623,0.58 -3.131,0.895c-1.509,0.314 -3.025,0.827 -3.37,1.139c-0.345,0.312 -1.284,0.568 -2.087,0.57c-0.804,0.001 -1.941,0.252 -2.528,0.558c-0.586,0.306 -1.558,0.557 -2.16,0.557c-0.601,0 -1.545,0.227 -2.099,0.504c-0.553,0.277 -1.843,0.707 -2.868,0.955c-1.024,0.248 -2.197,0.667 -2.607,0.93c-0.409,0.263 -1.415,0.598 -2.234,0.744c-0.82,0.147 -3.372,1.174 -5.673,2.281c-2.301,1.108 -5.066,2.298 -6.145,2.644c-1.079,0.346 -2.293,0.854 -2.697,1.127c-0.404,0.274 -0.952,0.498 -1.218,0.498c-0.266,0 -1.192,0.458 -2.059,1.017c-2.495,1.61 -2.668,1.715 -4.741,2.894c-2.575,1.464 -2.938,1.69 -4.475,2.794c-1.717,1.233 -2.561,1.745 -3.905,2.368c-1.063,0.494 -1.833,1.102 -5.192,4.101c-0.807,0.721 -1.996,1.595 -2.641,1.942c-0.645,0.348 -1.649,1.331 -2.231,2.185c-0.583,0.854 -1.599,1.962 -2.257,2.461c-0.659,0.5 -1.727,1.663 -2.373,2.585c-0.646,0.921 -2.064,2.932 -3.151,4.469c-1.086,1.536 -2.18,3.422 -2.429,4.19c-0.25,0.768 -0.608,1.396 -0.797,1.396c-0.189,0 -0.344,0.315 -0.344,0.7c0,0.385 -0.432,1.643 -0.959,2.796c-1.676,3.659 -2.012,11.385 -0.717,16.452c1.155,4.521 1.954,6.135 6.444,13.013c1.782,2.73 9.485,10.677 12.364,12.756c0.922,0.666 2.801,2.049 4.177,3.073c1.375,1.024 2.609,1.862 2.743,1.862c0.133,0 1.357,0.741 2.719,1.646c1.361,0.905 3.58,2.062 4.93,2.57c1.35,0.508 2.772,1.093 3.161,1.301c3.047,1.625 5.211,2.088 4.118,0.881c-0.34,-0.376 -0.619,-0.812 -0.619,-0.968c0,-0.157 -0.927,-1.309 -2.06,-2.562c-1.134,-1.252 -2.165,-2.703 -2.293,-3.224c-0.127,-0.521 -0.625,-1.531 -1.105,-2.244c-0.48,-0.714 -0.874,-1.719 -0.875,-2.235c0,-0.516 -0.332,-1.481 -0.737,-2.144c-0.404,-0.664 -0.905,-2.27 -1.113,-3.569c-0.207,-1.298 -0.672,-2.934 -1.032,-3.635c-0.902,-1.755 -0.824,-20.175 0.093,-21.949c0.311,-0.6 0.706,-2.478 0.879,-4.174c0.197,-1.93 0.614,-3.638 1.113,-4.567c0.44,-0.817 0.8,-1.99 0.8,-2.607c0.001,-0.618 0.42,-1.948 0.931,-2.955c0.512,-1.008 0.931,-2.181 0.932,-2.607c0.002,-0.427 0.336,-1.278 0.743,-1.893c0.407,-0.614 0.746,-1.452 0.754,-1.862c0.008,-0.41 0.427,-1.415 0.932,-2.235c0.504,-0.819 0.918,-1.757 0.919,-2.083c0.001,-0.327 0.322,-0.884 0.713,-1.238c0.392,-0.354 0.823,-1.093 0.959,-1.641c0.136,-0.548 0.546,-1.332 0.911,-1.741c0.364,-0.41 1.061,-1.499 1.547,-2.421c0.487,-0.922 1.648,-2.682 2.581,-3.911c0.933,-1.229 2.149,-2.905 2.703,-3.724c2.042,-3.021 10.034,-10.765 12.572,-12.181c1.336,-0.746 2.731,-1.689 3.099,-2.096c0.368,-0.406 1.16,-0.942 1.76,-1.191c0.599,-0.248 1.09,-0.58 1.09,-0.738c0,-0.429 2.847,-1.485 4.011,-1.487c0.559,-0.002 1.457,-0.232 1.995,-0.513c1.431,-0.747 10.126,-1.109 15.037,-0.626c4.616,0.453 6.497,1.147 14.519,5.357c1.625,0.853 8.597,8.169 9.538,10.008c0.387,0.756 1.124,1.995 1.638,2.752c0.514,0.758 0.934,1.612 0.934,1.899c0,0.287 0.375,1.029 0.834,1.649c1.292,1.749 1.296,16.921 0.004,18.998c-0.461,0.741 -0.838,1.625 -0.838,1.963c0,0.724 -1.99,4.551 -2.926,5.626c-0.357,0.411 -1.121,1.454 -1.697,2.318c-3.289,4.931 -9.293,7.69 -16.792,7.719l-5.587,0.021l-2.993,-1.583c-4.702,-2.486 -4.926,-2.309 -5.373,4.243c-0.191,2.804 -0.568,5.358 -0.91,6.162c-0.321,0.755 -0.731,2.689 -0.911,4.298c-0.18,1.608 -0.581,3.421 -0.892,4.027c-0.311,0.607 -0.687,2.025 -0.835,3.151c-0.149,1.127 -0.488,2.3 -0.754,2.607c-0.266,0.308 -0.666,1.229 -0.887,2.049c-0.222,0.819 -0.74,1.992 -1.15,2.607c-0.41,0.614 -0.747,1.433 -0.748,1.818c-0.002,0.386 -0.38,1.305 -0.841,2.043c-1.364,2.185 -1.545,2.487 -2.392,4.003c-1.751,3.13 -8.604,8.678 -10.751,8.705c-0.212,0.002 -1.05,0.344 -1.862,0.758c-0.976,0.499 -2.579,0.833 -4.735,0.987c-3.463,0.248 -4.971,0.967 -2.954,1.41c0.597,0.131 1.443,0.572 1.88,0.979c0.437,0.407 2.094,1.175 3.681,1.706c1.588,0.531 2.971,1.082 3.074,1.224c0.18,0.25 1.027,0.568 5.772,2.173c8.586,2.903 12.418,4.001 18.064,5.175c1.536,0.319 3.547,0.828 4.469,1.131c2.34,0.769 11.207,2.698 14.339,3.12c1.434,0.193 3.301,0.51 4.15,0.704c1.506,0.344 9.788,1.448 16.893,2.251c1.946,0.22 5.279,0.66 7.408,0.976c12.239,1.821 40.959,2.383 62.61,1.226c8.517,-0.456 13.673,-0.983 25.14,-2.572c2.868,-0.398 6.999,-0.904 9.181,-1.125c2.182,-0.222 5.115,-0.646 6.518,-0.943c1.403,-0.298 3.02,-0.544 3.593,-0.547c0.574,-0.004 1.495,-0.235 2.049,-0.515c0.961,-0.486 3.779,-1.058 7.639,-1.55c0.986,-0.126 2.327,-0.533 2.98,-0.905c0.653,-0.372 2.109,-0.788 3.235,-0.924c2.549,-0.308 7.659,-1.468 10.615,-2.41c1.229,-0.392 3.743,-1.158 5.587,-1.702c1.843,-0.543 4.357,-1.383 5.586,-1.864c1.229,-0.482 3.408,-1.325 4.842,-1.873c1.434,-0.549 3.277,-1.296 4.097,-1.662c1.742,-0.778 4.188,-1.771 7.821,-3.174c5.435,-2.1 10.197,-4.79 11.207,-6.331c0.336,-0.513 0.857,-0.933 1.157,-0.933c0.301,0 0.478,-0.208 0.393,-0.462c-0.169,-0.506 -4.331,-1.334 -6.984,-1.389c-0.965,-0.02 -2.466,-0.423 -3.538,-0.95c-1.025,-0.504 -2.141,-0.918 -2.48,-0.92c-1.375,-0.007 -8.319,-6.495 -8.761,-8.186c-0.132,-0.506 -0.556,-1.454 -0.941,-2.107c-0.587,-0.995 -0.709,-2.025 -0.75,-6.366l-0.049,-5.18l1.553,-3.142c3.301,-6.675 9.507,-12.063 15.711,-13.641c1.126,-0.286 2.635,-0.677 3.352,-0.867c1.974,-0.526 6.011,-0.416 7.076,0.193c0.512,0.293 1.269,0.539 1.681,0.546c1.213,0.021 3.588,1.446 5.488,3.294l1.77,1.719l0,3.082l0,3.081l-2.127,2.519c-3.071,3.637 -5.904,6.057 -7.091,6.057c-0.326,0 -0.891,0.269 -1.254,0.598c-1.093,0.989 -9.716,2.418 -10.169,1.685c-0.255,-0.412 0.088,-0.779 3.105,-3.318c4.795,-4.037 5.097,-8.767 0.747,-11.689c-5.66,-3.801 -13.008,6.917 -8.724,12.724c0.513,0.695 0.932,1.539 0.932,1.876c0,1.524 6.354,7.848 8.805,8.764c0.995,0.372 2.176,0.908 2.625,1.192c0.601,0.38 1.973,0.49 5.214,0.421c5.711,-0.123 5.782,0.187 1.243,5.403c-0.751,0.862 -0.803,1.032 -0.259,0.838c0.375,-0.134 0.984,-0.244 1.354,-0.244c0.369,0 1.57,-0.726 2.669,-1.612c1.099,-0.887 2.753,-2.051 3.674,-2.586c2.458,-1.428 7.083,-5.828 9.592,-9.125c3.499,-4.597 6.051,-8.498 6.053,-9.255c0.001,-0.385 0.263,-1.199 0.581,-1.81c0.319,-0.61 0.888,-2.226 1.266,-3.59c0.378,-1.364 0.871,-2.822 1.095,-3.241c0.591,-1.104 0.509,-7.393 -0.121,-9.377c-0.293,-0.922 -1.082,-3.409 -1.752,-5.526c-0.828,-2.614 -1.734,-4.581 -2.821,-6.125c-0.881,-1.251 -1.602,-2.411 -1.602,-2.578c0,-1.133 -10.361,-12.414 -12.663,-13.787c-0.717,-0.427 -2.076,-1.412 -3.021,-2.188c-0.945,-0.776 -2.788,-2.017 -4.097,-2.758c-1.309,-0.742 -2.882,-1.662 -3.497,-2.046c-0.614,-0.383 -1.843,-1.065 -2.73,-1.514c-0.887,-0.45 -1.701,-1.047 -1.809,-1.328c-0.108,-0.281 -0.471,-0.512 -0.808,-0.514c-0.336,-0.001 -1.114,-0.276 -1.729,-0.611c-0.974,-0.531 -6.459,-3.406 -8.572,-4.493c-0.406,-0.209 -1.242,-0.553 -1.856,-0.765c-0.615,-0.212 -2.536,-0.989 -4.269,-1.726c-1.734,-0.738 -3.347,-1.341 -3.585,-1.341c-0.238,0 -1.381,-0.419 -2.539,-0.931c-1.158,-0.512 -2.383,-0.931 -2.722,-0.931c-0.339,0 -1.298,-0.31 -2.131,-0.69c-0.833,-0.379 -3.274,-1.228 -5.425,-1.887c-2.15,-0.658 -4.413,-1.376 -5.028,-1.594c-0.614,-0.218 -2.374,-0.639 -3.91,-0.935c-1.536,-0.296 -3.315,-0.762 -3.953,-1.037c-0.637,-0.275 -1.978,-0.613 -2.979,-0.751c-1.001,-0.138 -3.022,-0.654 -4.49,-1.147c-1.468,-0.494 -3.563,-0.905 -4.656,-0.914c-1.092,-0.009 -2.656,-0.279 -3.475,-0.599c-0.82,-0.321 -3.25,-0.795 -5.401,-1.054c-2.15,-0.259 -4.832,-0.73 -5.959,-1.048c-1.126,-0.317 -3.64,-0.685 -5.586,-0.817c-1.946,-0.132 -4.46,-0.473 -5.587,-0.759c-1.126,-0.285 -3.976,-0.687 -6.331,-0.894c-2.356,-0.206 -6.881,-0.721 -10.056,-1.144c-6.413,-0.854 -41.534,-1.335 -55.866,-0.765m-62.289,18.143c-1.042,0.319 -1.942,0.869 -2.194,1.34c-0.534,0.997 -0.198,8.619 0.603,13.684c0.416,2.627 0.561,6.751 0.564,16.015c0.005,15.546 0.237,16.102 6.308,15.131c4.338,-0.694 10.453,-5.794 10.453,-8.719c0,-0.319 0.266,-0.874 0.591,-1.233c0.325,-0.359 0.897,-1.965 1.272,-3.568c0.375,-1.603 0.86,-3.585 1.077,-4.404c0.778,-2.94 0.5,-9.055 -0.526,-11.546c-0.507,-1.229 -0.922,-2.882 -0.923,-3.673c0,-0.792 -0.329,-2.049 -0.731,-2.794c-0.401,-0.745 -0.967,-1.941 -1.259,-2.658c-2.511,-6.18 -9.096,-9.454 -15.235,-7.575m-17.734,5.145c-1.472,1.04 -2.686,2.296 -4.69,4.851c-0.803,1.025 -2.225,2.722 -3.159,3.772c-2.812,3.158 -5.664,7.839 -9.955,16.34c-1.622,3.213 -2.359,4.962 -2.359,5.598c0,0.41 -0.314,1.33 -0.697,2.045c-0.383,0.714 -0.821,2.032 -0.972,2.928c-0.151,0.896 -0.573,2.152 -0.936,2.792c-0.364,0.64 -0.757,2.332 -0.875,3.769c-0.117,1.434 -0.571,3.529 -1.009,4.656c-1.127,2.905 -0.916,13.515 0.335,16.843c0.441,1.173 0.802,2.7 0.802,3.393c0,0.731 0.391,1.838 0.931,2.633c0.512,0.755 0.931,1.611 0.931,1.902c0,2.322 4.836,5.199 8.75,5.205c3.988,0.007 10.617,-4.15 10.617,-6.657c0,-0.189 0.419,-0.893 0.931,-1.565c0.512,-0.671 0.931,-1.326 0.931,-1.455c0,-0.129 0.484,-1.271 1.075,-2.539c0.592,-1.267 1.185,-2.555 1.318,-2.863c0.134,-0.307 0.486,-0.977 0.782,-1.489c0.296,-0.513 0.542,-1.351 0.546,-1.863c0.004,-0.512 0.42,-1.601 0.925,-2.42c0.742,-1.206 0.92,-1.99 0.929,-4.11c0.007,-1.658 0.291,-3.416 0.774,-4.789c1.215,-3.458 0.95,-42.54 -0.309,-45.659c-0.454,-1.123 -0.826,-2.087 -0.826,-2.141c0,-0.554 -3.755,0.092 -4.79,0.823m102.538,27.255c4.181,2.826 3.585,6.047 -1.793,9.697c-0.848,0.576 -1.757,1.335 -2.02,1.687c-1.576,2.108 -5.294,1.241 -5.294,-1.235c0,-0.406 -0.335,-1.395 -0.744,-2.198c-0.992,-1.943 -0.6,-2.708 2.475,-4.843c1.328,-0.921 3.101,-2.204 3.941,-2.851c1.532,-1.18 2.017,-1.216 3.435,-0.257m3.556,15.026c0.921,0.922 1.172,30.99 0.274,32.739c-0.49,0.953 -9.057,5.623 -10.315,5.623c-1.088,0 -1.133,-0.537 -1.133,-13.788l0,-12.61l-1.544,-1.785l-1.544,-1.784l2.941,-2.744c6.566,-6.125 9.421,-7.55 11.321,-5.651m-47.789,0.518c0.582,0.49 1.547,1.914 2.145,3.166c1.185,2.479 2.142,2.924 3.45,1.603c0.367,-0.37 1.421,-1.245 2.343,-1.945c0.921,-0.701 1.759,-1.369 1.862,-1.484c0.655,-0.741 4.984,-2.23 6.483,-2.23c4.914,0 8.647,4.567 6.906,8.448c-2.258,5.035 -6.988,6.635 -11.212,3.793c-3.209,-2.158 -3.295,-2.144 -6.825,1.117c-2.354,2.174 -2.428,2.571 -2.428,12.975l0,9.02l-1.77,0.873c-0.973,0.48 -2.931,1.512 -4.351,2.294c-6.037,3.324 -5.798,3.84 -5.798,-12.459l0,-12.879l-1.131,-1.538c-0.622,-0.846 -1.627,-1.758 -2.234,-2.026c-1.305,-0.578 -1.362,-1.01 -0.249,-1.878c0.452,-0.351 2.227,-1.75 3.945,-3.107c6.523,-5.153 6.965,-5.34 8.864,-3.743m104.026,1.96c0.703,0.8 1.118,1.681 1.118,2.373c0,0.605 0.405,2.15 0.899,3.432c0.764,1.982 0.931,3.214 1.112,8.214c0.125,3.46 0.442,6.681 0.769,7.822c0.307,1.066 0.71,3.614 0.897,5.663c0.187,2.048 0.458,4.089 0.603,4.536c0.274,0.846 0.204,0.898 -3.907,2.888c-0.717,0.347 -1.555,0.789 -1.862,0.982c-0.656,0.412 -1.383,0.745 -3.911,1.788l-1.862,0.769l-0.652,-0.774c-0.358,-0.426 -0.652,-1.238 -0.652,-1.804c0,-0.566 -0.255,-1.754 -0.568,-2.639c-0.407,-1.155 -0.635,-3.931 -0.805,-9.824l-0.236,-8.213l-1.185,-1.188c-3.409,-3.421 -7.23,-0.758 -19.606,13.665c-9.115,10.623 -9.047,10.624 -9.427,-0.186c-0.177,-5.038 -0.768,-11.355 -1.542,-16.475c-0.11,-0.727 -0.556,-1.466 -1.124,-1.862c-3.612,-2.52 -3.694,-2.296 2.556,-6.984c3.955,-2.967 4.945,-3.543 6.084,-3.543c1.886,0 4.045,2.141 4.425,4.39c0.148,0.877 0.546,2.133 0.885,2.792c0.424,0.824 0.649,2.361 0.722,4.922c0.195,6.952 1.32,7.005 7.058,0.334c6.734,-7.829 11.956,-11.951 15.743,-12.429c2.439,-0.308 3.219,-0.072 4.468,1.351m38.362,-1.364c3.694,0.713 6.402,1.932 8.247,3.71c2.302,2.218 2.332,2.076 -1.077,5.145c-4.694,4.225 -6.372,4.956 -7.764,3.382c-0.93,-1.051 -6.056,-4.412 -6.729,-4.412c-0.288,0 -0.94,-0.273 -1.449,-0.606c-4.425,-2.899 -11.076,6.596 -8.05,11.492c0.444,0.718 0.807,1.594 0.807,1.946c0,1.529 3.718,5.969 6.704,8.008c3.003,2.05 4.202,2.591 6.6,2.979c1.184,0.191 2.655,0.451 3.27,0.578c0.614,0.126 1.498,0.307 1.963,0.402c1.313,0.268 0.567,1.224 -3.531,4.52c-6.071,4.884 -7.473,5.416 -10.08,3.827c-0.67,-0.409 -1.814,-0.744 -2.541,-0.744c-3.364,0 -11.54,-7.067 -12.238,-10.58c-1.892,-9.506 0.019,-16.925 5.938,-23.059c2.584,-2.678 4.154,-3.654 9.316,-5.794c2.714,-1.124 7.177,-1.459 10.614,-0.794m6.89,43.88l6.704,0.258l2.049,1.624c2.154,1.708 2.841,2.549 2.424,2.966c-0.139,0.138 -46.094,0.252 -102.125,0.252l-101.872,0l-1.635,-1.806c-3.198,-3.532 -10.255,-3.237 79.463,-3.328c43.786,-0.044 82.208,-0.182 85.384,-0.307c6.041,-0.237 18.232,-0.097 29.608,0.341" id="path0"/>
 </g>
</svg>