<?xml version="1.0" encoding="UTF-8" standalone="no"?>
<svg
   xmlns:dc="http://purl.org/dc/elements/1.1/"
   xmlns:cc="http://creativecommons.org/ns#"
   xmlns:rdf="http://www.w3.org/1999/02/22-rdf-syntax-ns#"
   xmlns:svg="http://www.w3.org/2000/svg"
   xmlns="http://www.w3.org/2000/svg"
   xmlns:sodipodi="http://sodipodi.sourceforge.net/DTD/sodipodi-0.dtd"
   xmlns:inkscape="http://www.inkscape.org/namespaces/inkscape"
   width="400"
   height="372.14484679665736"
   version="1.1"
   id="svg11"
   sodipodi:docname="logo.svg"
   inkscape:version="0.92.3 (unknown)">
  <metadata
     id="metadata17">
    <rdf:RDF>
      <cc:Work
         rdf:about="">
        <dc:format>image/svg+xml</dc:format>
        <dc:type
           rdf:resource="http://purl.org/dc/dcmitype/StillImage" />
        <dc:title />
      </cc:Work>
    </rdf:RDF>
  </metadata>
  <defs
     id="defs15" />
  <sodipodi:namedview
     pagecolor="#ffffff"
     bordercolor="#666666"
     borderopacity="1"
     objecttolerance="10"
     gridtolerance="10"
     guidetolerance="10"
     inkscape:pageopacity="0"
     inkscape:pageshadow="2"
     inkscape:window-width="1315"
     inkscape:window-height="741"
     id="namedview13"
     showgrid="false"
     inkscape:zoom="0.89684007"
     inkscape:cx="19.740682"
     inkscape:cy="125.42958"
     inkscape:window-x="51"
     inkscape:window-y="27"
     inkscape:window-maximized="1"
     inkscape:current-layer="g9" />
  <!-- Created with Method Draw - http://github.com/duopixel/Method-Draw/ -->
  <g
     id="g4"
     transform="translate(0,-28)">
    <title
       id="title2">background</title>
  </g>
  <g
     id="g9"
     transform="translate(0,-28)">
    <title
       id="title6">Layer 1</title>
    <ellipse
       style="opacity:0.53600003;fill:#ffff00;fill-opacity:1;fill-rule:nonzero;stroke:none;stroke-width:9.66854382;stroke-linecap:round;stroke-linejoin:round;stroke-miterlimit:4;stroke-dasharray:none;stroke-dashoffset:0;stroke-opacity:1;paint-order:markers stroke fill"
       id="path840"
       cx="-1102.3815"
       cy="-642.27747"
       transform="matrix(-0.98377935,0.17938283,0.94202122,0.33555332,0,0)"
       rx="189.88622"
       ry="141.88014" />
    <path
       d="m 198.862,40.945 c -0.349,0.64 -0.985,1.604 -1.412,2.141 -0.8,1.004 -2.761,4.949 -2.761,5.552 0,0.186 -0.331,0.637 -0.735,1.003 -0.405,0.366 -0.83,0.964 -0.946,1.329 -0.116,0.364 -0.958,1.801 -1.872,3.192 -0.914,1.391 -1.661,2.767 -1.661,3.057 0,1.794 -11.596,13.846 -13.322,13.846 -0.189,0 -0.662,0.357 -1.052,0.793 -2.834,3.167 -17.73,5.753 -22.254,3.863 -0.735,-0.308 -1.854,-0.559 -2.486,-0.559 -1.724,0 -12.435,-3.74 -13.045,-4.555 -0.389,-0.52 -3.146,0.086 -3.762,0.826 -0.592,0.712 -0.42,3.031 0.313,4.218 0.414,0.67 2.388,6.379 2.69,7.783 0.164,0.759 0.546,1.765 0.85,2.234 0.303,0.469 0.865,1.691 1.248,2.716 0.384,1.024 0.913,2.281 1.176,2.793 0.262,0.512 0.478,1.298 0.48,1.747 0.001,0.449 0.164,0.916 0.363,1.039 0.199,0.123 0.721,1.431 1.16,2.907 0.44,1.476 1.032,3.015 1.315,3.42 0.284,0.405 0.516,1.123 0.516,1.597 0,0.473 0.419,1.687 0.931,2.698 0.512,1.01 0.931,2.034 0.931,2.274 0,0.241 0.317,1.126 0.705,1.968 1.097,2.384 2.609,6.61 2.878,8.048 0.134,0.717 0.451,1.555 0.703,1.862 0.253,0.308 0.746,1.437 1.095,2.51 0.349,1.073 0.777,2.038 0.95,2.145 0.173,0.107 0.742,1.492 1.264,3.077 5.801,17.603 -0.469,29.388 -13.182,24.779 -4.211,-1.527 -6.535,-3.195 -13.594,-9.758 -1.389,-1.291 -6,-5.139 -12.204,-10.183 -1.449,-1.178 -2.752,-2.141 -2.894,-2.141 -0.143,0 -1.246,-1.019 -2.451,-2.264 -1.204,-1.245 -2.693,-2.526 -3.307,-2.845 -0.615,-0.32 -1.201,-0.687 -1.304,-0.815 -0.19,-0.237 -4.157,-3.669 -6.11,-5.285 -0.595,-0.493 -1.535,-1.315 -2.09,-1.827 -0.554,-0.512 -1.743,-1.611 -2.642,-2.444 -7.797,-7.215 -10.239,-7.117 -11.34,0.459 -2.06,14.191 -7.578,18.096 -20.456,14.479 -2.343,-0.658 -10.96,-2.34 -13.327,-2.602 -0.977,-0.107 -2.28,-0.457 -2.897,-0.775 -0.616,-0.319 -2.582,-0.754 -4.369,-0.966 -1.787,-0.213 -4.087,-0.623 -5.111,-0.913 -5.311,-1.501 -16.319,-3.1 -18.162,-2.638 -3.159,0.793 -1.327,7.456 4.296,15.627 0.537,0.781 1.503,2.541 2.148,3.911 0.644,1.37 1.684,3.54 2.311,4.82 1.207,2.469 1.333,6.959 0.295,10.504 -1.153,3.935 -7.031,7.146 -14.365,7.847 -2.451,0.234 -5.336,0.517 -6.412,0.627 L 4,164.267 v 2.747 c 0,2.433 0.08,2.748 0.695,2.748 0.382,0 1.094,0.308 1.583,0.684 0.488,0.377 2.229,1.307 3.867,2.067 1.639,0.761 3.425,1.626 3.968,1.923 0.544,0.297 1.19,0.54 1.436,0.54 0.247,0 1.083,0.503 1.859,1.117 0.776,0.615 1.521,1.117 1.657,1.117 0.312,0 3.184,1.242 5.605,2.424 1.025,0.5 2.972,1.414 4.327,2.031 1.356,0.618 2.675,1.376 2.932,1.686 0.257,0.31 0.622,0.563 0.812,0.563 0.341,0 5.197,2.287 6.268,2.953 1.067,0.662 3.963,1.889 4.459,1.889 0.274,0 1.018,0.39 1.651,0.866 1.354,1.017 2.519,1.636 8.883,4.723 6.523,3.163 8.562,5.776 6.05,7.752 -0.512,0.403 -0.931,0.982 -0.931,1.287 0,1.513 3.269,0.804 8.752,-1.899 1.639,-0.808 3.399,-1.595 3.911,-1.749 0.512,-0.154 1.262,-0.508 1.666,-0.788 0.404,-0.28 1.015,-0.509 1.358,-0.509 0.344,0 1.354,-0.416 2.245,-0.926 0.892,-0.51 1.961,-0.929 2.376,-0.931 0.416,-0.003 1.104,-0.249 1.53,-0.547 0.426,-0.299 1.93,-0.88 3.342,-1.291 3.089,-0.901 5.998,-1.948 7.099,-2.556 0.444,-0.245 1.731,-0.687 2.86,-0.981 1.128,-0.294 2.386,-0.713 2.795,-0.932 0.408,-0.218 1.618,-0.585 2.688,-0.814 1.069,-0.23 2.633,-0.73 3.473,-1.112 0.841,-0.382 2.122,-0.698 2.847,-0.702 0.725,-0.005 1.982,-0.35 2.793,-0.768 0.812,-0.418 2.649,-0.911 4.083,-1.097 1.433,-0.185 3.193,-0.577 3.91,-0.87 0.717,-0.294 2.142,-0.647 3.166,-0.786 1.024,-0.139 2.826,-0.579 4.005,-0.977 1.179,-0.399 2.776,-0.724 3.55,-0.724 0.774,0 2.324,-0.257 3.444,-0.57 1.12,-0.313 4.215,-0.894 6.878,-1.291 2.663,-0.397 5.428,-0.897 6.145,-1.11 0.717,-0.214 3.914,-0.548 7.104,-0.741 3.191,-0.194 6.543,-0.519 7.451,-0.723 0.907,-0.203 4.492,-0.549 7.966,-0.768 3.475,-0.219 6.91,-0.555 7.634,-0.747 5.073,-1.342 41.638,-1.33 50.207,0.017 2.514,0.395 6.285,0.719 8.38,0.719 2.095,0 5.234,0.256 6.975,0.569 1.741,0.312 5.512,0.735 8.38,0.939 2.868,0.205 6.974,0.693 9.125,1.086 2.151,0.393 5,0.873 6.331,1.067 2.853,0.416 7.479,1.35 10.615,2.144 1.229,0.311 3.408,0.722 4.842,0.913 1.433,0.192 3.445,0.593 4.469,0.893 1.024,0.299 2.868,0.739 4.097,0.979 1.229,0.239 2.656,0.651 3.17,0.914 0.515,0.264 1.772,0.601 2.794,0.75 1.021,0.149 2.292,0.491 2.825,0.761 0.532,0.27 1.789,0.688 2.793,0.929 1.004,0.241 2.496,0.737 3.315,1.102 1.672,0.745 5.566,2.058 7.821,2.637 0.82,0.21 1.807,0.554 2.194,0.765 0.387,0.21 1.546,0.632 2.577,0.939 1.031,0.306 2.471,0.876 3.202,1.268 0.73,0.391 1.619,0.711 1.976,0.711 0.357,0 1.617,0.443 2.799,0.984 4.675,2.137 5.227,2.368 5.672,2.368 0.253,0 0.905,0.311 1.448,0.69 1.472,1.028 9.816,5.001 13.386,6.374 3.515,1.352 4.359,0.813 2.314,-1.477 -2.007,-2.249 -1.106,-3.968 3.208,-6.123 1.616,-0.808 3.357,-1.741 3.869,-2.074 0.512,-0.333 2.355,-1.158 4.097,-1.834 3.477,-1.35 3.937,-1.567 10.428,-4.917 1.127,-0.582 2.261,-1.06 2.521,-1.062 0.26,-0.003 1.103,-0.382 1.872,-0.843 2.619,-1.568 9.458,-4.749 10.213,-4.749 0.199,0 0.808,-0.314 1.351,-0.698 0.544,-0.384 1.532,-0.816 2.195,-0.96 0.663,-0.144 1.298,-0.41 1.411,-0.593 0.263,-0.424 4.52,-2.457 5.829,-2.782 0.548,-0.136 1.286,-0.568 1.64,-0.959 0.354,-0.391 0.869,-0.712 1.144,-0.712 0.957,0 4.09,-3.632 3.803,-4.409 -0.417,-1.128 -3.452,-2.365 -6.596,-2.688 -7.314,-0.751 -12.811,-3.614 -15.708,-8.18 l -1.295,-2.041 v -5.809 c 0,-3.728 0.149,-5.997 0.417,-6.332 0.229,-0.287 0.629,-1.192 0.888,-2.012 0.259,-0.819 1.118,-2.608 1.91,-3.975 0.792,-1.368 1.44,-2.634 1.44,-2.814 0,-0.181 0.437,-0.906 0.971,-1.611 0.534,-0.706 1.204,-1.786 1.489,-2.4 0.286,-0.615 0.937,-1.788 1.448,-2.608 1.51,-2.42 1.513,-2.463 0.289,-3.557 -1.526,-1.363 -3.396,-1.61 -6.99,-0.921 -1.639,0.314 -5.912,0.903 -9.497,1.309 -3.585,0.406 -7.691,0.994 -9.125,1.306 -1.434,0.313 -4.115,0.729 -5.959,0.927 -1.844,0.197 -4.525,0.618 -5.959,0.937 -6.784,1.506 -14.964,1.684 -17.691,0.385 -4.167,-1.984 -5.356,-2.988 -6.84,-5.772 -0.386,-0.725 -0.863,-1.42 -1.059,-1.545 -0.456,-0.29 -2.168,-6.28 -2.479,-8.672 -0.357,-2.752 -1.422,-3.421 -4.151,-2.61 -2.946,0.874 -8.741,4.797 -12.2,8.258 -0.465,0.464 -1.973,1.595 -3.352,2.512 -1.379,0.918 -3.429,2.437 -4.556,3.377 -3.051,2.545 -3.229,2.679 -4.358,3.282 -0.573,0.305 -2.215,1.648 -3.649,2.983 -1.434,1.334 -2.901,2.433 -3.259,2.442 -0.359,0.008 -0.652,0.156 -0.652,0.328 0,0.171 -1.383,1.295 -3.072,2.497 -1.69,1.202 -4.208,3.24 -5.594,4.529 -1.387,1.29 -2.675,2.344 -2.863,2.344 -0.187,0 -1.659,0.88 -3.27,1.956 -4.816,3.216 -9.451,4.884 -13.506,4.861 -4.043,-0.023 -9.311,-3.063 -9.311,-5.374 0,-0.404 -0.269,-1.255 -0.598,-1.891 -1.383,-2.675 -0.008,-10.89 2.824,-16.87 0.582,-1.229 1.513,-3.324 2.068,-4.656 1.532,-3.673 2.048,-4.858 3.001,-6.89 0.83,-1.77 1.946,-4.791 2.818,-7.631 0.22,-0.715 0.8,-1.775 1.288,-2.356 0.489,-0.581 0.889,-1.342 0.889,-1.69 0,-0.349 0.239,-0.974 0.53,-1.39 0.292,-0.416 1.158,-2.423 1.925,-4.459 0.767,-2.037 1.618,-3.967 1.891,-4.291 0.273,-0.323 0.501,-0.826 0.508,-1.117 0.006,-0.291 0.424,-1.367 0.927,-2.392 0.504,-1.024 0.918,-2.162 0.92,-2.528 0.002,-0.367 0.318,-1.289 0.703,-2.049 0.765,-1.51 2.426,-5.674 2.853,-7.154 0.148,-0.513 0.559,-1.35 0.914,-1.863 0.354,-0.512 0.756,-1.542 0.892,-2.29 0.136,-0.747 0.494,-1.564 0.796,-1.815 0.81,-0.671 0.668,-1.984 -0.313,-2.906 -1.137,-1.069 -1.988,-1.023 -5.001,0.271 -5.708,2.45 -10.212,3.989 -12.759,4.362 -0.922,0.135 -1.875,0.402 -2.119,0.594 -0.562,0.442 -10.794,0.149 -13.443,-0.385 -3.403,-0.686 -9.158,-3.106 -11.44,-4.811 -0.614,-0.459 -1.536,-1.128 -2.048,-1.487 -2.005,-1.406 -9.493,-9.357 -11.032,-11.714 -0.895,-1.37 -1.795,-2.595 -2.001,-2.722 -0.206,-0.128 -0.375,-0.506 -0.375,-0.841 0,-0.335 -0.407,-1.038 -0.904,-1.561 -0.497,-0.523 -1.759,-2.711 -2.804,-4.862 -1.046,-2.151 -2.068,-4.162 -2.273,-4.469 -0.204,-0.308 -0.66,-1.037 -1.013,-1.62 -1.927,-3.189 -3.036,-3.644 -4.103,-1.685 m -22.05,150.398 c -3.79,0.15 -7.728,0.461 -8.752,0.69 -1.025,0.229 -4.377,0.6 -7.449,0.824 -3.073,0.223 -7.198,0.73 -9.167,1.126 -1.969,0.396 -5.489,0.887 -7.821,1.092 -2.333,0.205 -5.331,0.62 -6.662,0.924 -1.332,0.304 -3.594,0.709 -5.028,0.901 -1.434,0.192 -3.529,0.604 -4.656,0.915 -2.966,0.818 -6.856,1.722 -10.038,2.331 -2.744,0.525 -6.534,1.772 -7.287,2.396 -0.214,0.178 -1.623,0.58 -3.131,0.895 -1.509,0.314 -3.025,0.827 -3.37,1.139 -0.345,0.312 -1.284,0.568 -2.087,0.57 -0.804,0.001 -1.941,0.252 -2.528,0.558 -0.586,0.306 -1.558,0.557 -2.16,0.557 -0.601,0 -1.545,0.227 -2.099,0.504 -0.553,0.277 -1.843,0.707 -2.868,0.955 -1.024,0.248 -2.197,0.667 -2.607,0.93 -0.409,0.263 -1.415,0.598 -2.234,0.744 -0.82,0.147 -3.372,1.174 -5.673,2.281 -2.301,1.108 -5.066,2.298 -6.145,2.644 -1.079,0.346 -2.293,0.854 -2.697,1.127 -0.404,0.274 -0.952,0.498 -1.218,0.498 -0.266,0 -1.192,0.458 -2.059,1.017 -2.495,1.61 -2.668,1.715 -4.741,2.894 -2.575,1.464 -2.938,1.69 -4.475,2.794 -1.717,1.233 -2.561,1.745 -3.905,2.368 -1.063,0.494 -1.833,1.102 -5.192,4.101 -0.807,0.721 -1.996,1.595 -2.641,1.942 -0.645,0.348 -1.649,1.331 -2.231,2.185 -0.583,0.854 -1.599,1.962 -2.257,2.461 -0.659,0.5 -1.727,1.663 -2.373,2.585 -0.646,0.921 -2.064,2.932 -3.151,4.469 -1.086,1.536 -2.18,3.422 -2.429,4.19 -0.25,0.768 -0.608,1.396 -0.797,1.396 -0.189,0 -0.344,0.315 -0.344,0.7 0,0.385 -0.432,1.643 -0.959,2.796 -1.676,3.659 -2.012,11.385 -0.717,16.452 1.155,4.521 1.954,6.135 6.444,13.013 1.782,2.73 9.485,10.677 12.364,12.756 0.922,0.666 2.801,2.049 4.177,3.073 1.375,1.024 2.609,1.862 2.743,1.862 0.133,0 1.357,0.741 2.719,1.646 1.361,0.905 3.58,2.062 4.93,2.57 1.35,0.508 2.772,1.093 3.161,1.301 3.047,1.625 5.211,2.088 4.118,0.881 -0.34,-0.376 -0.619,-0.812 -0.619,-0.968 0,-0.157 -0.927,-1.309 -2.06,-2.562 -1.134,-1.252 -2.165,-2.703 -2.293,-3.224 -0.127,-0.521 -0.625,-1.531 -1.105,-2.244 -0.48,-0.714 -0.874,-1.719 -0.875,-2.235 0,-0.516 -0.332,-1.481 -0.737,-2.144 -0.404,-0.664 -0.905,-2.27 -1.113,-3.569 -0.207,-1.298 -0.672,-2.934 -1.032,-3.635 -0.902,-1.755 -0.824,-20.175 0.093,-21.949 0.311,-0.6 0.706,-2.478 0.879,-4.174 0.197,-1.93 0.614,-3.638 1.113,-4.567 0.44,-0.817 0.8,-1.99 0.8,-2.607 0.001,-0.618 0.42,-1.948 0.931,-2.955 0.512,-1.008 0.931,-2.181 0.932,-2.607 0.002,-0.427 0.336,-1.278 0.743,-1.893 0.407,-0.614 0.746,-1.452 0.754,-1.862 0.008,-0.41 0.427,-1.415 0.932,-2.235 0.504,-0.819 0.918,-1.757 0.919,-2.083 0.001,-0.327 0.322,-0.884 0.713,-1.238 0.392,-0.354 0.823,-1.093 0.959,-1.641 0.136,-0.548 0.546,-1.332 0.911,-1.741 0.364,-0.41 1.061,-1.499 1.547,-2.421 0.487,-0.922 1.648,-2.682 2.581,-3.911 0.933,-1.229 2.149,-2.905 2.703,-3.724 2.042,-3.021 10.034,-10.765 12.572,-12.181 1.336,-0.746 2.731,-1.689 3.099,-2.096 0.368,-0.406 1.16,-0.942 1.76,-1.191 0.599,-0.248 1.09,-0.58 1.09,-0.738 0,-0.429 2.847,-1.485 4.011,-1.487 0.559,-0.002 1.457,-0.232 1.995,-0.513 1.431,-0.747 10.126,-1.109 15.037,-0.626 4.616,0.453 6.497,1.147 14.519,5.357 1.625,0.853 8.597,8.169 9.538,10.008 0.387,0.756 1.124,1.995 1.638,2.752 0.514,0.758 0.934,1.612 0.934,1.899 0,0.287 0.375,1.029 0.834,1.649 1.292,1.749 1.296,16.921 0.004,18.998 -0.461,0.741 -0.838,1.625 -0.838,1.963 0,0.724 -1.99,4.551 -2.926,5.626 -0.357,0.411 -1.121,1.454 -1.697,2.318 -3.289,4.931 -9.293,7.69 -16.792,7.719 l -5.587,0.021 -2.993,-1.583 c -4.702,-2.486 -4.926,-2.309 -5.373,4.243 -0.191,2.804 -0.568,5.358 -0.91,6.162 -0.321,0.755 -0.731,2.689 -0.911,4.298 -0.18,1.608 -0.581,3.421 -0.892,4.027 -0.311,0.607 -0.687,2.025 -0.835,3.151 -0.149,1.127 -0.488,2.3 -0.754,2.607 -0.266,0.308 -0.666,1.229 -0.887,2.049 -0.222,0.819 -0.74,1.992 -1.15,2.607 -0.41,0.614 -0.747,1.433 -0.748,1.818 -0.002,0.386 -0.38,1.305 -0.841,2.043 -1.364,2.185 -1.545,2.487 -2.392,4.003 -1.751,3.13 -8.604,8.678 -10.751,8.705 -0.212,0.002 -1.05,0.344 -1.862,0.758 -0.976,0.499 -2.579,0.833 -4.735,0.987 -3.463,0.248 -4.971,0.967 -2.954,1.41 0.597,0.131 1.443,0.572 1.88,0.979 0.437,0.407 2.094,1.175 3.681,1.706 1.588,0.531 2.971,1.082 3.074,1.224 0.18,0.25 1.027,0.568 5.772,2.173 8.586,2.903 12.418,4.001 18.064,5.175 1.536,0.319 3.547,0.828 4.469,1.131 2.34,0.769 11.207,2.698 14.339,3.12 1.434,0.193 3.301,0.51 4.15,0.704 1.506,0.344 9.788,1.448 16.893,2.251 1.946,0.22 5.279,0.66 7.408,0.976 12.239,1.821 40.959,2.383 62.61,1.226 8.517,-0.456 13.673,-0.983 25.14,-2.572 2.868,-0.398 6.999,-0.904 9.181,-1.125 2.182,-0.222 5.115,-0.646 6.518,-0.943 1.403,-0.298 3.02,-0.544 3.593,-0.547 0.574,-0.004 1.495,-0.235 2.049,-0.515 0.961,-0.486 3.779,-1.058 7.639,-1.55 0.986,-0.126 2.327,-0.533 2.98,-0.905 0.653,-0.372 2.109,-0.788 3.235,-0.924 2.549,-0.308 7.659,-1.468 10.615,-2.41 1.229,-0.392 3.743,-1.158 5.587,-1.702 1.843,-0.543 4.357,-1.383 5.586,-1.864 1.229,-0.482 3.408,-1.325 4.842,-1.873 1.434,-0.549 3.277,-1.296 4.097,-1.662 1.742,-0.778 4.188,-1.771 7.821,-3.174 5.435,-2.1 10.197,-4.79 11.207,-6.331 0.336,-0.513 0.857,-0.933 1.157,-0.933 0.301,0 0.478,-0.208 0.393,-0.462 -0.169,-0.506 -4.331,-1.334 -6.984,-1.389 -0.965,-0.02 -2.466,-0.423 -3.538,-0.95 -1.025,-0.504 -2.141,-0.918 -2.48,-0.92 -1.375,-0.007 -8.319,-6.495 -8.761,-8.186 -0.132,-0.506 -0.556,-1.454 -0.941,-2.107 -0.587,-0.995 -0.709,-2.025 -0.75,-6.366 l -0.049,-5.18 1.553,-3.142 c 3.301,-6.675 9.507,-12.063 15.711,-13.641 1.126,-0.286 2.635,-0.677 3.352,-0.867 1.974,-0.526 6.011,-0.416 7.076,0.193 0.512,0.293 1.269,0.539 1.681,0.546 1.213,0.021 3.588,1.446 5.488,3.294 l 1.77,1.719 v 3.082 3.081 l -2.127,2.519 c -3.071,3.637 -5.904,6.057 -7.091,6.057 -0.326,0 -0.891,0.269 -1.254,0.598 -1.093,0.989 -9.716,2.418 -10.169,1.685 -0.255,-0.412 0.088,-0.779 3.105,-3.318 4.795,-4.037 5.097,-8.767 0.747,-11.689 -5.66,-3.801 -13.008,6.917 -8.724,12.724 0.513,0.695 0.932,1.539 0.932,1.876 0,1.524 6.354,7.848 8.805,8.764 0.995,0.372 2.176,0.908 2.625,1.192 0.601,0.38 1.973,0.49 5.214,0.421 5.711,-0.123 5.782,0.187 1.243,5.403 -0.751,0.862 -0.803,1.032 -0.259,0.838 0.375,-0.134 0.984,-0.244 1.354,-0.244 0.369,0 1.57,-0.726 2.669,-1.612 1.099,-0.887 2.753,-2.051 3.674,-2.586 2.458,-1.428 7.083,-5.828 9.592,-9.125 3.499,-4.597 6.051,-8.498 6.053,-9.255 10e-4,-0.385 0.263,-1.199 0.581,-1.81 0.319,-0.61 0.888,-2.226 1.266,-3.59 0.378,-1.364 0.871,-2.822 1.095,-3.241 0.591,-1.104 0.509,-7.393 -0.121,-9.377 -0.293,-0.922 -1.082,-3.409 -1.752,-5.526 -0.828,-2.614 -1.734,-4.581 -2.821,-6.125 -0.881,-1.251 -1.602,-2.411 -1.602,-2.578 0,-1.133 -10.361,-12.414 -12.663,-13.787 -0.717,-0.427 -2.076,-1.412 -3.021,-2.188 -0.945,-0.776 -2.788,-2.017 -4.097,-2.758 -1.309,-0.742 -2.882,-1.662 -3.497,-2.046 -0.614,-0.383 -1.843,-1.065 -2.73,-1.514 -0.887,-0.45 -1.701,-1.047 -1.809,-1.328 -0.108,-0.281 -0.471,-0.512 -0.808,-0.514 -0.336,-10e-4 -1.114,-0.276 -1.729,-0.611 -0.974,-0.531 -6.459,-3.406 -8.572,-4.493 -0.406,-0.209 -1.242,-0.553 -1.856,-0.765 -0.615,-0.212 -2.536,-0.989 -4.269,-1.726 -1.734,-0.738 -3.347,-1.341 -3.585,-1.341 -0.238,0 -1.381,-0.419 -2.539,-0.931 -1.158,-0.512 -2.383,-0.931 -2.722,-0.931 -0.339,0 -1.298,-0.31 -2.131,-0.69 -0.833,-0.379 -3.274,-1.228 -5.425,-1.887 -2.15,-0.658 -4.413,-1.376 -5.028,-1.594 -0.614,-0.218 -2.374,-0.639 -3.91,-0.935 -1.536,-0.296 -3.315,-0.762 -3.953,-1.037 -0.637,-0.275 -1.978,-0.613 -2.979,-0.751 -1.001,-0.138 -3.022,-0.654 -4.49,-1.147 -1.468,-0.494 -3.563,-0.905 -4.656,-0.914 -1.092,-0.009 -2.656,-0.279 -3.475,-0.599 -0.82,-0.321 -3.25,-0.795 -5.401,-1.054 -2.15,-0.259 -4.832,-0.73 -5.959,-1.048 -1.126,-0.317 -3.64,-0.685 -5.586,-0.817 -1.946,-0.132 -4.46,-0.473 -5.587,-0.759 -1.126,-0.285 -3.976,-0.687 -6.331,-0.894 -2.356,-0.206 -6.881,-0.721 -10.056,-1.144 -6.413,-0.854 -41.534,-1.335 -55.866,-0.765 m -62.289,18.143 c -1.042,0.319 -1.942,0.869 -2.194,1.34 -0.534,0.997 -0.198,8.619 0.603,13.684 0.416,2.627 0.561,6.751 0.564,16.015 0.005,15.546 0.237,16.102 6.308,15.131 4.338,-0.694 10.453,-5.794 10.453,-8.719 0,-0.319 0.266,-0.874 0.591,-1.233 0.325,-0.359 0.897,-1.965 1.272,-3.568 0.375,-1.603 0.86,-3.585 1.077,-4.404 0.778,-2.94 0.5,-9.055 -0.526,-11.546 -0.507,-1.229 -0.922,-2.882 -0.923,-3.673 0,-0.792 -0.329,-2.049 -0.731,-2.794 -0.401,-0.745 -0.967,-1.941 -1.259,-2.658 -2.511,-6.18 -9.096,-9.454 -15.235,-7.575 m -17.734,5.145 c -1.472,1.04 -2.686,2.296 -4.69,4.851 -0.803,1.025 -2.225,2.722 -3.159,3.772 -2.812,3.158 -5.664,7.839 -9.955,16.34 -1.622,3.213 -2.359,4.962 -2.359,5.598 0,0.41 -0.314,1.33 -0.697,2.045 -0.383,0.714 -0.821,2.032 -0.972,2.928 -0.151,0.896 -0.573,2.152 -0.936,2.792 -0.364,0.64 -0.757,2.332 -0.875,3.769 -0.117,1.434 -0.571,3.529 -1.009,4.656 -1.127,2.905 -0.916,13.515 0.335,16.843 0.441,1.173 0.802,2.7 0.802,3.393 0,0.731 0.391,1.838 0.931,2.633 0.512,0.755 0.931,1.611 0.931,1.902 0,2.322 4.836,5.199 8.75,5.205 3.988,0.007 10.617,-4.15 10.617,-6.657 0,-0.189 0.419,-0.893 0.931,-1.565 0.512,-0.671 0.931,-1.326 0.931,-1.455 0,-0.129 0.484,-1.271 1.075,-2.539 0.592,-1.267 1.185,-2.555 1.318,-2.863 0.134,-0.307 0.486,-0.977 0.782,-1.489 0.296,-0.513 0.542,-1.351 0.546,-1.863 0.004,-0.512 0.42,-1.601 0.925,-2.42 0.742,-1.206 0.92,-1.99 0.929,-4.11 0.007,-1.658 0.291,-3.416 0.774,-4.789 1.215,-3.458 0.95,-42.54 -0.309,-45.659 -0.454,-1.123 -0.826,-2.087 -0.826,-2.141 0,-0.554 -3.755,0.092 -4.79,0.823 m 102.538,27.255 c 4.181,2.826 3.585,6.047 -1.793,9.697 -0.848,0.576 -1.757,1.335 -2.02,1.687 -1.576,2.108 -5.294,1.241 -5.294,-1.235 0,-0.406 -0.335,-1.395 -0.744,-2.198 -0.992,-1.943 -0.6,-2.708 2.475,-4.843 1.328,-0.921 3.101,-2.204 3.941,-2.851 1.532,-1.18 2.017,-1.216 3.435,-0.257 m 3.556,15.026 c 0.921,0.922 1.172,30.99 0.274,32.739 -0.49,0.953 -9.057,5.623 -10.315,5.623 -1.088,0 -1.133,-0.537 -1.133,-13.788 v -12.61 l -1.544,-1.785 -1.544,-1.784 2.941,-2.744 c 6.566,-6.125 9.421,-7.55 11.321,-5.651 m -47.789,0.518 c 0.582,0.49 1.547,1.914 2.145,3.166 1.185,2.479 2.142,2.924 3.45,1.603 0.367,-0.37 1.421,-1.245 2.343,-1.945 0.921,-0.701 1.759,-1.369 1.862,-1.484 0.655,-0.741 4.984,-2.23 6.483,-2.23 4.914,0 8.647,4.567 6.906,8.448 -2.258,5.035 -6.988,6.635 -11.212,3.793 -3.209,-2.158 -3.295,-2.144 -6.825,1.117 -2.354,2.174 -2.428,2.571 -2.428,12.975 v 9.02 l -1.77,0.873 c -0.973,0.48 -2.931,1.512 -4.351,2.294 -6.037,3.324 -5.798,3.84 -5.798,-12.459 v -12.879 l -1.131,-1.538 c -0.622,-0.846 -1.627,-1.758 -2.234,-2.026 -1.305,-0.578 -1.362,-1.01 -0.249,-1.878 0.452,-0.351 2.227,-1.75 3.945,-3.107 6.523,-5.153 6.965,-5.34 8.864,-3.743 m 104.026,1.96 c 0.703,0.8 1.118,1.681 1.118,2.373 0,0.605 0.405,2.15 0.899,3.432 0.764,1.982 0.931,3.214 1.112,8.214 0.125,3.46 0.442,6.681 0.769,7.822 0.307,1.066 0.71,3.614 0.897,5.663 0.187,2.048 0.458,4.089 0.603,4.536 0.274,0.846 0.204,0.898 -3.907,2.888 -0.717,0.347 -1.555,0.789 -1.862,0.982 -0.656,0.412 -1.383,0.745 -3.911,1.788 l -1.862,0.769 -0.652,-0.774 c -0.358,-0.426 -0.652,-1.238 -0.652,-1.804 0,-0.566 -0.255,-1.754 -0.568,-2.639 -0.407,-1.155 -0.635,-3.931 -0.805,-9.824 l -0.236,-8.213 -1.185,-1.188 c -3.409,-3.421 -7.23,-0.758 -19.606,13.665 -9.115,10.623 -9.047,10.624 -9.427,-0.186 -0.177,-5.038 -0.768,-11.355 -1.542,-16.475 -0.11,-0.727 -0.556,-1.466 -1.124,-1.862 -3.612,-2.52 -3.694,-2.296 2.556,-6.984 3.955,-2.967 4.945,-3.543 6.084,-3.543 1.886,0 4.045,2.141 4.425,4.39 0.148,0.877 0.546,2.133 0.885,2.792 0.424,0.824 0.649,2.361 0.722,4.922 0.195,6.952 1.32,7.005 7.058,0.334 6.734,-7.829 11.956,-11.951 15.743,-12.429 2.439,-0.308 3.219,-0.072 4.468,1.351 m 38.362,-1.364 c 3.694,0.713 6.402,1.932 8.247,3.71 2.302,2.218 2.332,2.076 -1.077,5.145 -4.694,4.225 -6.372,4.956 -7.764,3.382 -0.93,-1.051 -6.056,-4.412 -6.729,-4.412 -0.288,0 -0.94,-0.273 -1.449,-0.606 -4.425,-2.899 -11.076,6.596 -8.05,11.492 0.444,0.718 0.807,1.594 0.807,1.946 0,1.529 3.718,5.969 6.704,8.008 3.003,2.05 4.202,2.591 6.6,2.979 1.184,0.191 2.655,0.451 3.27,0.578 0.614,0.126 1.498,0.307 1.963,0.402 1.313,0.268 0.567,1.224 -3.531,4.52 -6.071,4.884 -7.473,5.416 -10.08,3.827 -0.67,-0.409 -1.814,-0.744 -2.541,-0.744 -3.364,0 -11.54,-7.067 -12.238,-10.58 -1.892,-9.506 0.019,-16.925 5.938,-23.059 2.584,-2.678 4.154,-3.654 9.316,-5.794 2.714,-1.124 7.177,-1.459 10.614,-0.794 m 6.89,43.88 6.704,0.258 2.049,1.624 c 2.154,1.708 2.841,2.549 2.424,2.966 -0.139,0.138 -46.094,0.252 -102.125,0.252 H 111.552 l -1.635,-1.806 c -3.198,-3.532 -10.255,-3.237 79.463,-3.328 43.786,-0.044 82.208,-0.182 85.384,-0.307 6.041,-0.237 18.232,-0.097 29.608,0.341"
       id="path0"
       inkscape:connector-curvature="0"
       style="fill:#d83623;fill-rule:evenodd" />
    <text
       xml:space="preserve"
       style="font-style:normal;font-variant:normal;font-weight:normal;font-stretch:normal;font-size:14.66666698px;line-height:1.25;font-family:'padmaa-Bold.1.1';-inkscape-font-specification:'padmaa-Bold.1.1';letter-spacing:0px;word-spacing:0px;fill:#000000;fill-opacity:1;stroke:none"
       x="356.37598"
       y="73.72966"
       id="text850"><tspan
         sodipodi:role="line"
         id="tspan848"
         x="356.37598"
         y="85.369781" /></text>
    <text
       xml:space="preserve"
       style="font-style:normal;font-variant:normal;font-weight:normal;font-stretch:normal;font-size:14.66666698px;line-height:1.25;font-family:Rachana;-inkscape-font-specification:Rachana;letter-spacing:0px;word-spacing:0px;opacity:1;fill:#333333;fill-opacity:1;stroke:none;"
       x="332.27774"
       y="74.557243"
       id="text854"><tspan
         sodipodi:role="line"
         id="tspan852"
         x="332.27774"
         y="86.197357"
         style="font-style:normal;font-variant:normal;font-weight:normal;font-stretch:normal;font-family:Rachana;-inkscape-font-specification:Rachana;" /></text>
    <text
       xml:space="preserve"
       style="font-style:normal;font-variant:normal;font-weight:normal;font-stretch:normal;font-size:24.08600235px;line-height:1.25;font-family:Ubuntu;-inkscape-font-specification:Ubuntu;letter-spacing:0px;word-spacing:0px;fill:#ffffff;fill-opacity:1;stroke:none;stroke-width:1.64222741;"
       x="339.89456"
       y="80.051094"
       id="text896"><tspan
         sodipodi:role="line"
         id="tspan894"
         x="339.89456"
         y="80.051094"
         style="font-weight:bold;fill:#ffffff;stroke-width:1.64222741;">TM</tspan></text>
    <g
       aria-label="PRODUCTS"
       transform="matrix(0.69825388,-4.9811119e-4,4.9811119e-4,0.69825388,-128.30927,629.94629)"
       style="font-style:normal;font-variant:normal;font-weight:normal;font-stretch:normal;font-size:23.78686523px;line-height:1.25;font-family:'padmaa-Bold.1.1';-inkscape-font-specification:'padmaa-Bold.1.1';letter-spacing:0px;word-spacing:0px;opacity:0.94199997;fill:#ffffff;fill-opacity:1;stroke:none;stroke-width:4.12689924;stroke-miterlimit:4;stroke-dasharray:none;stroke-opacity:1"
       id="text835">
      <path
         d="m 332.04575,-403.73025 q 1.1825,-4.3267 -1.1965,-6.86836 -2.28563,-2.59496 -8.29901,-4.23843 l -7.04005,-1.92406 -4.28906,15.69344 7.04005,1.92407 q 6.08671,1.66351 9.35441,0.66511 3.26771,-0.99841 4.43016,-5.25177 z m 6.30672,1.72364 q -1.16246,4.25337 -3.48412,6.6925 -2.22829,2.38584 -5.37574,2.94424 -3.14745,0.5584 -6.14776,0.29009 -2.98028,-0.34165 -6.86697,-1.4039 l -6.82005,-1.86393 -5.47156,20.02014 -6.45338,-1.76372 12.88722,-47.15368 13.27343,3.62766 q 3.00669,0.82174 5.2732,1.75643 2.35989,0.8814 4.61274,2.44284 2.25284,1.56145 3.46534,3.46906 1.30587,1.85431 1.63107,4.70159 0.41857,2.79399 -0.52342,6.24068 z"
         style="font-style:normal;font-variant:normal;font-weight:normal;font-stretch:normal;font-size:77.84792328px;font-family:Padauk;-inkscape-font-specification:Padauk;fill:#ffffff;stroke:none;stroke-width:4.12689924;stroke-miterlimit:4;stroke-dasharray:none;stroke-opacity:1"
         id="path954"
         inkscape:connector-curvature="0" />
      <path
         d="m 370.41652,-397.3932 q 0.68719,-4.12443 -1.81255,-6.23649 -2.49975,-2.11206 -7.74902,-2.98666 l -8.47383,-1.41185 -2.44888,14.69797 8.47383,1.41185 q 10.79851,1.79918 12.01045,-5.47482 z m 2.12657,36.26956 -6.82405,-1.13698 q -0.21267,-3.81193 -0.23783,-6.89897 -0.0127,-3.16204 -0.0877,-5.02426 -0.15013,-2.79958 -0.33768,-4.44933 -0.11257,-1.63725 -0.65007,-3.03702 -0.53749,-1.39976 -1.12494,-2.03714 -0.49996,-0.69987 -1.93728,-1.3247 -1.36233,-0.61234 -2.63716,-0.82475 -1.26233,-0.28739 -3.88696,-0.72469 l -5.84919,-0.97455 -3.64833,21.89697 -6.59909,-1.09949 8.03382,-48.21834 15.1479,2.52385 q 8.84878,1.47432 12.61092,5.26107 3.84963,3.72425 2.65018,10.92326 -1.01204,6.07416 -10.72296,8.84925 4.33695,1.72452 5.28704,6.19882 0.28754,1.51226 0.0629,8.41126 -0.13713,6.8365 0.75049,11.68574 z"
         style="font-style:normal;font-variant:normal;font-weight:normal;font-stretch:normal;font-size:77.84792328px;font-family:Padauk;-inkscape-font-specification:Padauk;fill:#ffffff;stroke:none;stroke-width:4.12689924;stroke-miterlimit:4;stroke-dasharray:none;stroke-opacity:1"
         id="path956"
         inkscape:connector-curvature="0" />
      <path
         d="m 418.92609,-382.08701 q 0.79033,-8.55421 -2.1616,-13.7895 -2.87623,-5.2283 -11.12764,-5.99065 -15.14019,-1.39881 -16.83974,16.99653 -0.37768,4.08785 -0.0181,7.63304 0.44228,3.47648 1.83493,6.58269 1.39265,3.1062 4.25983,5.12709 2.94987,1.95217 7.18912,2.34384 4.23926,0.39166 7.42116,-0.994 3.26461,-1.45436 5.12709,-4.25983 1.86948,-2.88116 2.86552,-6.22476 1.07175,-3.3366 1.44942,-7.42445 z m 7.04019,0.65044 q -0.66443,7.1916 -3.5497,12.80375 -2.80957,5.61916 -8.30694,8.92861 -5.41467,3.24075 -12.60626,2.57632 -7.19159,-0.66444 -11.99655,-4.84938 -4.72226,-4.25365 -6.60615,-10.30643 -1.80819,-6.04579 -1.14376,-13.23738 1.00015,-10.82524 7.30019,-17.03807 6.30004,-6.21283 17.12528,-5.21269 10.82523,1.00015 15.80464,8.25509 4.98639,7.17925 3.97925,18.08018 z"
         style="font-style:normal;font-variant:normal;font-weight:normal;font-stretch:normal;font-size:77.84792328px;font-family:Padauk;-inkscape-font-specification:Padauk;fill:#ffffff;stroke:none;stroke-width:4.12689924;stroke-miterlimit:4;stroke-dasharray:none;stroke-opacity:1"
         id="path958"
         inkscape:connector-curvature="0" />
      <path
         d="m 466.26647,-379.19594 q 0.27583,-8.89045 -4.13484,-13.81908 -4.41068,-4.92862 -12.46528,-5.17853 l -8.58651,-0.26641 -1.14815,37.00557 8.5865,0.26641 q 7.97862,0.24755 12.68871,-4.47415 4.78608,-4.71934 5.05957,-13.53381 z m 6.76282,0.20983 q -0.11552,3.72335 -0.98148,7.11918 -0.78762,3.3222 -2.63669,6.53541 -1.84672,3.13722 -4.57934,5.4103 -2.73262,2.27307 -7.03268,3.58479 -4.2977,1.23574 -9.61677,1.07071 l -15.12138,-0.46917 1.51594,-48.85951 15.12138,0.46917 q 6.68683,0.20747 11.41035,2.40764 4.80185,2.12654 7.35059,5.78044 2.55108,3.57791 3.6372,7.7949 1.08612,4.217 0.93288,9.15614 z"
         style="font-style:normal;font-variant:normal;font-weight:normal;font-stretch:normal;font-size:77.84792328px;font-family:Padauk;-inkscape-font-specification:Padauk;fill:#ffffff;stroke:none;stroke-width:4.12689924;stroke-miterlimit:4;stroke-dasharray:none;stroke-opacity:1"
         id="path960"
         inkscape:connector-curvature="0" />
      <path
         d="m 520.17146,-377.18712 q 0.29307,12.1602 -4.2148,17.59202 -4.50786,5.43182 -14.76803,5.6791 -10.33618,0.2491 -15.02447,-4.96109 -4.6883,-5.21019 -4.98136,-17.3704 l -0.6539,-27.13246 6.68812,-0.16119 0.65389,27.13246 q 0.12822,5.3201 1.20049,8.79234 1.07044,3.39625 3.01077,5.02249 1.94033,1.62623 4.00702,2.18479 2.06485,0.48256 4.9529,0.41295 2.81205,-0.0678 4.77526,-0.6474 2.03739,-0.65746 3.89895,-2.29928 1.93574,-1.71965 2.8395,-5.23952 0.90376,-3.51988 0.77555,-8.83997 l -0.6539,-27.13246 6.84012,-0.16485 z"
         style="font-style:normal;font-variant:normal;font-weight:normal;font-stretch:normal;font-size:77.84792328px;font-family:Padauk;-inkscape-font-specification:Padauk;fill:#ffffff;stroke:none;stroke-width:4.12689924;stroke-miterlimit:4;stroke-dasharray:none;stroke-opacity:1"
         id="path962"
         inkscape:connector-curvature="0" />
      <path
         d="m 566.87368,-371.95888 q 0.4881,5.98597 -3.95807,10.39113 -4.44616,4.40515 -12.62953,5.07243 -5.45557,0.44485 -9.70789,-1.19158 -4.18273,-1.71838 -6.74628,-5.09431 -2.49395,-3.45787 -3.90075,-7.6146 -1.41298,-4.2325 -1.8393,-9.46076 -0.42631,-5.22826 0.27614,-9.70952 0.70246,-4.48127 2.59709,-8.37327 1.97042,-3.89818 5.81333,-6.34725 3.91868,-2.45525 9.45003,-2.90628 8.71376,-0.71052 13.35404,2.87744 4.70988,3.50601 5.21033,9.64354 l -6.81947,0.55606 q -0.35835,-4.39477 -3.03182,-6.31249 -2.67347,-1.91772 -8.28059,-1.46052 -13.26008,1.08124 -11.59806,21.46387 0.85881,10.5323 4.48771,14.81293 3.69849,4.19869 10.1391,3.67352 11.06269,-0.90206 10.36452,-9.46428 z"
         style="font-style:normal;font-variant:normal;font-weight:normal;font-stretch:normal;font-size:77.84792328px;font-family:Padauk;-inkscape-font-specification:Padauk;fill:#ffffff;stroke:none;stroke-width:4.12689924;stroke-miterlimit:4;stroke-dasharray:none;stroke-opacity:1"
         id="path964"
         inkscape:connector-curvature="0" />
      <path
         d="m 605.57857,-407.60897 -15.79866,2.29789 6.18242,42.50594 -6.77086,0.98481 -6.18242,-42.50594 -15.79867,2.2979 -0.8535,-5.86808 38.36819,-5.5806 z"
         style="font-style:normal;font-variant:normal;font-weight:normal;font-stretch:normal;font-size:77.84792328px;font-family:Padauk;-inkscape-font-specification:Padauk;fill:#ffffff;stroke:none;stroke-width:4.12689924;stroke-miterlimit:4;stroke-dasharray:none;stroke-opacity:1"
         id="path966"
         inkscape:connector-curvature="0" />
      <path
         d="m 649.64972,-387.56865 q 0.94813,3.99428 -0.14234,7.30042 -1.09047,3.30615 -3.75444,5.57935 -2.68153,2.19924 -5.85207,3.65506 -3.07901,1.51223 -6.85138,2.40769 -6.80506,1.61533 -12.30036,-1.45584 -5.43888,-3.1627 -7.07178,-10.04173 l 6.80506,-1.61533 q 0.93058,3.92031 4.09513,6.06015 3.147,2.06588 6.99334,1.15286 2.58888,-0.61452 4.45938,-1.29294 1.87049,-0.67841 4.00548,-1.88842 2.11743,-1.28398 2.98861,-3.20976 0.85362,-1.99975 0.23909,-4.58863 -0.71987,-3.03269 -2.78612,-4.49561 -2.00984,-1.55445 -4.71789,-1.77113 -2.70805,-0.21668 -5.84609,0.0594 -3.15559,0.2021 -6.3463,0.25627 -3.20827,-0.0198 -6.00411,-0.60632 -2.8134,-0.66049 -5.09034,-3.01103 -2.20297,-2.3681 -3.18622,-6.51031 -1.38708,-5.84347 2.79996,-10.58788 4.26101,-4.76197 10.32639,-6.20172 3.32856,-0.79011 6.37134,-0.80916 3.11674,-0.0366 5.90884,0.86334 2.84852,0.80842 4.86844,3.0637 2.09389,2.23772 2.91911,5.71422 l -6.65712,1.58022 q -0.54429,-2.29301 -1.78307,-3.56168 -1.25633,-1.34263 -3.11562,-1.60451 -1.78532,-0.27943 -3.46529,-0.11506 -1.67997,0.16437 -3.97298,0.70867 -9.246,2.19474 -7.49021,9.59155 0.68477,2.88475 3.1597,4.09439 2.54891,1.19208 5.79603,1.04639 3.32109,-0.16325 7.24775,-0.0796 3.90909,0.01 7.29668,0.45577 3.44399,0.35453 6.21742,2.82163 2.84739,2.44954 3.93598,7.03555 z"
         style="font-style:normal;font-variant:normal;font-weight:normal;font-stretch:normal;font-size:77.84792328px;font-family:Padauk;-inkscape-font-specification:Padauk;fill:#ffffff;stroke:none;stroke-width:4.12689924;stroke-miterlimit:4;stroke-dasharray:none;stroke-opacity:1"
         id="path968"
         inkscape:connector-curvature="0" />
    </g>
  </g>
</svg>
